<?xml version="1.0" encoding="UTF-8"?>
<svg id="Layer_1" data-name="Layer 1" xmlns="http://www.w3.org/2000/svg" viewBox="0 0 400 400">
  <defs>
    <style>
      .cls-1 {
        stroke-linejoin: round;
      }

      .cls-1, .cls-2 {
        fill: none;
        stroke: #512e86;
        stroke-linecap: round;
        stroke-width: 14px;
      }

      .cls-2 {
        stroke-miterlimit: 10;
      }

      .cls-3 {
        fill: #512e86;
        stroke-width: 0px;
      }
    </style>
  </defs>
  <path id="p3" class="cls-3" d="M36.32,291.82c55.08,83.98,133.83,36.92,162.03,17.44,1.6-1.14,1.15-2.02-.24-1.55-7.55,1.74-35.86,5.78-69.56-14.78-30.05-18.33-66.94-15.95-91.92-2.36-.65.29-.67.99-.43,1.34l.11-.08Z"/>
  <path id="p2" class="cls-3" d="M18.84,149.46c-21.05,98.19,67.7,121.26,101.29,127.64,1.96.35,2.33-.6,1.03-1.23-6.52-4.19-29.39-21.48-38.34-59.81-7.96-34.22-35.67-58.93-62.86-67.21-.67-.22-1.16.3-1.15.8l.03-.2Z"/>
  <path id="p1" class="cls-3" d="M104.36,35.72c-83.52,55.67-35.83,134.11-16.13,162.18,1.15,1.6,2.03,1.14,1.55-.25-1.8-7.54-6.07-35.82,14.21-69.67,18.08-30.18,15.4-67.06,1.62-91.95-.3-.65-1-.67-1.34-.42l.08.11Z"/>
  <path id="p8" class="cls-3" d="M250.54,20.92C152.56-1.15,128.69,87.38,122,120.9c-.37,1.95.57,2.33,1.22,1.04,4.25-6.48,21.75-29.17,60.15-37.72,34.28-7.6,59.25-35.06,67.77-62.17.23-.67-.29-1.17-.79-1.16l.2.04Z"/>
  <path id="p7" class="cls-3" d="M362.54,102.69c-55.76-83.53-134.12-35.84-162.17-16.12-1.59,1.15-1.13,2.03.25,1.55,7.54-1.8,35.81-6.07,69.67,14.21,30.2,18.08,67.07,15.4,91.94,1.62.65-.3.66-1,.42-1.34l-.11.08Z"/>
  <path id="p6" class="cls-3" d="M383.07,248.62c19.34-98.54-69.8-120.07-103.49-125.86-1.96-.31-2.32.64-1,1.25,6.6,4.08,29.76,20.97,39.37,59.14,8.55,34.08,36.68,58.31,64.02,66.1.67.21,1.16-.32,1.14-.82l-.03.2Z"/>
  <path id="p5" class="cls-3" d="M293.09,362.25c84.01-54.92,37.04-133.78,17.58-162.03-1.14-1.61-2.02-1.15-1.55.24,1.73,7.56,5.75,35.87-14.84,69.54-18.35,30.02-16,66.92-2.45,91.94.29.66.99.67,1.34.43l-.08-.11Z"/>
  <path id="p4" class="cls-3" d="M154.51,382.62c98.97,17.02,118.28-72.62,123.24-106.44.27-1.97-.69-2.3-1.27-.97-3.91,6.69-20.22,30.25-58.14,40.76-33.85,9.35-57.37,38.05-64.49,65.57-.19.68.35,1.15.85,1.12l-.2-.03Z"/>
  <path id="eye1" class="cls-2" d="M138.02,173.67c0-9.95,8.06-18.01,18.01-18.01s18.01,8.06,18.01,18.01"/>
  <path id="mouth" class="cls-1" d="M142.61,216.01c0,31.33,25.4,56.72,56.72,56.72s56.72-25.4,56.72-56.72h-113.45Z"/>
  <path id="eye2" class="cls-2" d="M225.68,173.67c0-9.95,8.06-18.01,18.01-18.01s18.01,8.06,18.01,18.01"/>
</svg>