<?xml version="1.0" encoding="UTF-8"?>
<svg id="Layer_1" data-name="Layer 1" xmlns="http://www.w3.org/2000/svg" viewBox="0 0 400 400">
  <defs>
    <style>
      .cls-b-1 {
        stroke-miterlimit: 10;
      }

      .cls-b-1, .cls-b-2 {
        fill: none;
        stroke: #512e86;
        stroke-linecap: round;
        stroke-width: 6px;
      }

      .cls-b-2 {
        stroke-linejoin: round;
      }

      .cls-b-3 {
        fill: #512e86;
        stroke-width: 0px;
      }
    </style>
  </defs>
  <path id="p3" class="cls-b-3" d="M104.55,254.16c32.22,49.12,78.28,21.6,94.78,10.2.94-.67.67-1.18-.14-.91-4.42,1.02-20.97,3.38-40.69-8.64-17.58-10.72-39.16-9.33-53.77-1.38-.38.17-.39.58-.25.78l.07-.05Z"/>
  <path id="p2" class="cls-b-3" d="M94.33,170.89c-12.31,57.44,39.6,70.93,59.25,74.66,1.14.2,1.36-.35.6-.72-3.82-2.45-17.19-12.57-22.42-34.99-4.65-20.02-20.86-34.47-36.77-39.31-.39-.13-.68.17-.67.47l.02-.11Z"/>
  <path id="p1" class="cls-b-3" d="M144.35,104.36c-48.85,32.56-20.96,78.44-9.43,94.87.67.93,1.19.66.91-.15-1.05-4.41-3.55-20.95,8.31-40.75,10.58-17.65,9.01-39.23.95-53.79-.17-.38-.58-.39-.78-.25l.05.07Z"/>
  <path id="p8" class="cls-b-3" d="M229.86,95.7c-57.31-12.91-71.27,38.87-75.19,58.48-.21,1.14.34,1.36.71.61,2.48-3.79,12.72-17.07,35.18-22.07,20.05-4.45,34.66-20.51,39.64-36.37.13-.39-.17-.68-.46-.68l.11.02Z"/>
  <path id="p7" class="cls-b-3" d="M295.38,143.53c-32.62-48.86-78.45-20.96-94.86-9.43-.93.67-.66,1.19.15.91,4.41-1.05,20.95-3.55,40.75,8.31,17.66,10.58,39.23,9.01,53.78.95.38-.17.39-.58.24-.78l-.07.05Z"/>
  <path id="p6" class="cls-b-3" d="M307.38,228.89c11.31-57.64-40.83-70.23-60.53-73.62-1.15-.18-1.35.37-.59.73,3.86,2.38,17.41,12.27,23.03,34.59,5,19.93,21.46,34.11,37.45,38.67.39.12.68-.19.67-.48l-.02.11Z"/>
  <path id="p5" class="cls-b-3" d="M254.75,295.36c49.14-32.12,21.67-78.25,10.28-94.78-.66-.94-1.18-.67-.91.14,1.01,4.42,3.36,20.98-8.68,40.68-10.73,17.56-9.36,39.14-1.43,53.78.17.38.58.39.78.25l-.05-.07Z"/>
  <path id="p4" class="cls-b-3" d="M173.69,307.27c57.89,9.96,69.19-42.48,72.09-62.26.16-1.15-.41-1.35-.74-.57-2.29,3.91-11.83,17.7-34.01,23.84-19.8,5.47-33.56,22.26-37.72,38.35-.11.4.2.67.5.65l-.12-.02Z"/>
  <path id="eye1" class="cls-b-1" d="M164.04,185.05c0-5.82,4.72-10.53,10.53-10.53s10.53,4.72,10.53,10.53"/>
  <path id="mouth" class="cls-b-2" d="M166.73,209.82c0,18.33,14.86,33.18,33.18,33.18s33.18-14.86,33.18-33.18h-66.36Z"/>
  <path id="eye2" class="cls-b-1" d="M215.32,185.05c0-5.82,4.72-10.53,10.53-10.53s10.53,4.72,10.53,10.53"/>
</svg>